PathFileType	4	(X/Y/Z)	c:/Users/goper/Files/vsCode/490R/osim_files/A06/A06_Slow_06.trc
DataRate	CameraRate	NumFrames	NumMarkers	Units                	OrigDataRate	OrigDataStartFrame	OrigNumFrames
120.00	120.00	4	36	mm	120.0	752	1202
                Frame#	Time	LPSIS			LASIS			LTH1			LTH2			LTH3			LTH4			LLFE			LMFE			LSH1			LSH2			LSH3			LSH4			LLMAL			LMMAL			LCAL			LMTP5			LTOE			LMTP1			RPSIS			RASIS			RTH1			RTH2			RTH3			RTH4			RLFE			RMFE			RSH1			RSH2			RSH3			RSH4			RLMAL			RMMAL			RCAL			RMTP1			RTOE			RMTP5		
		X1	Y1	Z1	X2	Y2	Z2	X3	Y3	Z3	X4	Y4	Z4	X5	Y5	Z5	X6	Y6	Z6	X7	Y7	Z7	X8	Y8	Z8	X9	Y9	Z9	X10	Y10	Z10	X11	Y11	Z11	X12	Y12	Z12	X13	Y13	Z13	X14	Y14	Z14	X15	Y15	Z15	X16	Y16	Z16	X17	Y17	Z17	X18	Y18	Z18	X19	Y19	Z19	X20	Y20	Z20	X21	Y21	Z21	X22	Y22	Z22	X23	Y23	Z23	X24	Y24	Z24	X25	Y25	Z25	X26	Y26	Z26	X27	Y27	Z27	X28	Y28	Z28	X29	Y29	Z29	X30	Y30	Z30	X31	Y31	Z31	X32	Y32	Z32	X33	Y33	Z33	X34	Y34	Z34	X35	Y35	Z35	X36	Y36	Z36

752	6.25833	-2093.86499	985.45245	354.61752	-2292.52002	933.69110	405.48566	-2173.63892	579.13306	442.40793	-2173.74023	536.52356	435.40405	-2232.48413	570.28033	418.12033	-2221.27734	529.43054	416.13925	-2178.14136	461.41537	415.65735	-2153.60229	458.19016	307.92026	-2102.78369	378.70114	441.18814	-2100.22583	332.61588	444.98697	-2160.79126	368.10449	423.57397	-2151.05249	327.10751	426.92148	-2041.00940	88.74498	403.02148	-2051.34692	99.64295	314.99792	-1970.42603	79.88712	355.86606	-2154.24658	42.04415	417.70169	-2190.59204	60.51849	359.55801	-2166.21606	53.26301	321.52808	-2081.54443	1006.18610	224.16722	-2254.14771	982.93726	155.55365	-2262.30249	596.07288	111.99690	-2286.06860	561.05444	107.30492	-2320.55469	623.32178	117.38852	-2334.61768	580.82385	112.47648	-2355.01245	465.61771	130.21548	-2358.16797	465.52884	218.70273	-2393.21655	312.29449	139.87344	-2410.45776	268.28329	140.88820	-2449.51660	330.58725	149.97314	-2459.73315	283.92868	144.97389	-2458.29883	138.05037	127.99718	-2470.85034	145.35632	212.55786	-2415.95386	96.73341	177.44922	-2610.76343	154.43649	202.51756	-2619.43237	171.62396	160.49457	-2598.92749	147.21457	113.23935
753	6.26667	-2101.08838	983.93274	354.19223	-2299.95996	932.48846	404.69763	-2178.71851	578.31885	441.99188	-2178.60107	535.69342	434.87622	-2238.34839	569.44830	418.03635	-2226.22998	528.41058	415.63568	-2182.09814	460.65955	415.28073	-2157.87817	457.86343	307.27948	-2105.93994	378.72296	440.72522	-2102.87817	332.63263	444.57288	-2163.47681	367.20438	423.20273	-2153.64331	326.59985	426.66663	-2041.40808	89.05155	402.90189	-2051.79077	99.91317	314.81723	-1970.50354	80.26830	355.76086	-2154.32471	41.95768	417.73004	-2190.80933	60.26183	359.62457	-2166.41553	53.07285	321.53381	-2088.89087	1004.29724	223.77817	-2261.48438	981.34552	154.65245	-2271.48389	594.75421	111.69299	-2295.78833	560.15338	106.63228	-2329.83032	622.33789	116.48247	-2344.29932	580.10156	111.85483	-2365.56958	465.08029	129.47723	-2368.50317	464.99744	217.77774	-2404.91650	312.00967	138.97836	-2422.11133	268.23227	139.98531	-2461.01514	330.78326	149.09976	-2471.35400	284.19879	143.80656	-2471.80200	138.43275	126.88226	-2484.31934	145.78555	211.51448	-2429.30200	96.93394	176.28796	-2624.37427	156.78323	199.90045	-2632.34717	173.28145	159.30351	-2612.02490	148.69255	112.05802
754	6.27500	-2108.42700	982.45587	353.78745	-2307.58643	931.32440	403.87680	-2183.84839	577.64282	441.49664	-2183.31860	535.11224	434.25043	-2243.43677	568.34442	417.73282	-2230.90430	527.37665	415.30508	-2186.15015	459.91882	414.81778	-2162.43311	457.47266	306.63916	-2109.14087	378.75873	440.05460	-2105.58813	332.74747	444.02859	-2167.02173	366.96906	422.79828	-2156.32788	326.16959	426.30734	-2041.93750	89.49788	402.73022	-2052.23950	100.23312	314.65582	-1970.74231	80.68155	355.66693	-2154.41333	41.90673	417.73920	-2190.48193	60.10372	359.43945	-2166.66309	52.90271	321.51041	-2096.38330	1002.29541	223.35500	-2268.89819	979.78174	153.79073	0.00000	0.00000	0.00000	-2305.40796	559.06366	105.93171	-2338.59131	621.18140	115.80887	-2353.82812	579.31488	111.14784	-2375.72998	464.32117	128.71687	-2378.86890	463.70786	217.43642	-2416.13037	311.49323	138.07968	-2433.35400	267.80118	139.14360	-2472.13525	330.74765	148.17117	-2482.84424	284.23453	142.85062	-2483.85327	138.36023	125.88821	-2496.80396	145.84129	210.44214	-2441.67261	96.41743	175.63049	-2636.60474	157.67931	198.77184	-2644.56299	174.36002	158.16530	-2624.29492	149.70261	110.93204
755	6.28333	-2115.87231	980.84058	353.34622	-2315.12817	930.13031	403.16818	-2188.87402	576.97632	440.88928	-2188.04028	534.46356	433.70255	-2247.96973	566.91046	417.21704	-2235.66113	526.32343	414.92169	-2190.23438	459.20532	414.36108	-2167.18359	456.91565	305.85349	-2112.50342	378.86594	439.42203	-2108.32593	332.89224	443.38342	-2170.30811	366.35297	422.23831	-2159.24146	325.79022	425.83105	-2042.37024	89.98856	402.49808	-2052.84985	100.51942	314.46600	-1971.01428	81.19816	355.54138	-2154.48193	41.83794	417.69562	-2191.20239	59.96998	359.78873	-2166.92017	52.70070	321.47372	-2104.05078	1000.27173	222.88893	-2276.56396	978.32672	152.95105	-2291.02734	593.24231	106.42339	-2315.38159	557.81812	105.23358	-2347.98462	620.15894	115.16266	-2363.31934	578.25128	110.40878	-2385.61475	463.32770	127.90515	-2388.82422	462.70590	216.68449	-2425.78345	310.86874	137.36984	-2444.73315	267.15778	138.05251	-2482.70361	330.26913	147.26337	-2493.89404	283.72791	142.06894	-2495.98730	138.10211	124.70029	-2508.38208	145.48820	209.33868	-2453.09839	95.95123	174.37553	-2648.14722	158.11714	197.72588	-2656.07031	174.88887	157.19711	-2635.98828	150.17740	109.88148
